<svg width="363" height="482" viewBox="0 0 363 482" fill="none" xmlns="http://www.w3.org/2000/svg">
<path d="M0 11C0 4.92488 4.92487 0 11 0H352C358.075 0 363 4.92487 363 11V471C363 477.075 358.075 482 352 482H11C4.92486 482 0 477.075 0 471V11Z" fill="white" fill-opacity="0.68"/>
<path d="M180.412 456.125L181.472 455.064L180.412 456.125ZM181.471 456.477L180.41 455.416L181.471 456.477ZM180.764 456.477L179.703 457.538L180.764 456.477ZM191.924 446.024L192.984 447.085L191.924 446.024ZM191.216 445.317L192.277 446.378L191.216 445.317ZM191.924 445.317L192.984 444.257L191.924 445.317ZM180.413 454.706L179.353 455.767L180.413 454.706ZM181.828 454.706L180.767 453.646L181.828 454.706ZM170.854 445.146L171.914 444.086L170.854 445.146ZM170.146 445.854L171.207 444.793L170.146 445.854ZM180.412 456.119L179.351 457.18L180.412 456.119ZM181.472 455.058L171.207 444.793L169.086 446.914L179.351 457.18L181.472 455.058ZM169.793 446.207L179.353 455.767L181.474 453.646L171.914 444.086L169.793 446.207ZM182.888 455.767L192.277 446.378L190.156 444.257L180.767 453.646L182.888 455.767ZM190.863 444.964L180.41 455.416L182.532 457.538L192.984 447.085L190.863 444.964ZM181.825 455.416L181.472 455.064L179.351 457.186L179.703 457.538L181.825 455.416ZM181.472 455.064C182.057 455.649 182.057 456.598 181.472 457.183L179.351 455.061C178.765 455.648 178.765 456.599 179.351 457.186L181.472 455.064ZM180.41 455.416C180.801 455.026 181.434 455.026 181.825 455.416L179.703 457.538C180.484 458.319 181.751 458.319 182.532 457.538L180.41 455.416ZM190.863 446.378C190.472 445.987 190.472 445.354 190.863 444.964L192.984 447.085C193.765 446.304 193.765 445.038 192.984 444.257L190.863 446.378ZM192.277 446.378C191.887 446.768 191.253 446.768 190.863 446.378L192.984 444.257C192.203 443.476 190.937 443.476 190.156 444.257L192.277 446.378ZM179.353 455.767C180.329 456.743 181.912 456.743 182.888 455.767L180.767 453.646C180.962 453.45 181.279 453.45 181.474 453.646L179.353 455.767ZM171.207 446.207C170.817 446.598 170.183 446.598 169.793 446.207L171.914 444.086C171.133 443.305 169.867 443.305 169.086 444.086L171.207 446.207ZM171.207 444.793C171.598 445.183 171.598 445.817 171.207 446.207L169.086 444.086C168.305 444.867 168.305 446.133 169.086 446.914L171.207 444.793ZM179.351 457.18C178.766 456.595 178.766 455.646 179.351 455.061L181.472 457.183C182.059 456.596 182.059 455.645 181.472 455.058L179.351 457.18Z" fill="#A84900"/>
<path d="M180.287 463.997L181.348 462.936L180.287 463.997ZM181.346 464.348L182.407 465.409L181.346 464.348ZM180.639 464.348L179.578 465.409L180.639 464.348ZM194.821 450.874L193.76 449.813L194.821 450.874ZM194.114 450.167L195.174 451.227L194.114 450.167ZM194.821 450.167L195.881 449.106L194.821 450.167ZM180.289 462.577L179.229 463.637L180.289 462.577ZM181.704 462.577L180.643 461.516L181.704 462.577ZM167.854 450.141L168.914 449.08L167.854 450.141ZM167.146 450.848L166.086 451.908L167.146 450.848ZM180.287 463.989L181.348 462.928L180.287 463.989ZM181.348 462.928L168.207 449.787L166.086 451.908L179.227 465.049L181.348 462.928ZM166.793 451.201L179.229 463.637L181.35 461.516L168.914 449.08L166.793 451.201ZM182.764 463.637L195.174 451.227L193.053 449.106L180.643 461.516L182.764 463.637ZM193.76 449.813L180.285 463.288L182.407 465.409L195.881 451.934L193.76 449.813ZM181.7 463.288L181.348 462.936L179.227 465.058L179.578 465.409L181.7 463.288ZM181.348 462.936C181.933 463.521 181.933 464.469 181.348 465.053L179.227 462.932C178.64 463.519 178.64 464.471 179.227 465.058L181.348 462.936ZM180.285 463.288C180.676 462.897 181.309 462.897 181.7 463.288L179.578 465.409C180.359 466.19 181.626 466.19 182.407 465.409L180.285 463.288ZM193.76 451.227C193.37 450.837 193.37 450.204 193.76 449.813L195.881 451.934C196.662 451.153 196.662 449.887 195.881 449.106L193.76 451.227ZM195.174 451.227C194.784 451.618 194.151 451.618 193.76 451.227L195.881 449.106C195.1 448.325 193.834 448.325 193.053 449.106L195.174 451.227ZM179.229 463.637C180.205 464.613 181.788 464.613 182.764 463.637L180.643 461.516C180.838 461.321 181.155 461.321 181.35 461.516L179.229 463.637ZM168.207 451.201C167.817 451.592 167.183 451.592 166.793 451.201L168.914 449.08C168.133 448.299 166.867 448.299 166.086 449.08L168.207 451.201ZM168.207 449.787C168.598 450.178 168.598 450.811 168.207 451.201L166.086 449.08C165.305 449.861 165.305 451.127 166.086 451.908L168.207 449.787ZM179.227 465.049C178.642 464.465 178.642 463.517 179.227 462.932L181.348 465.053C181.935 464.467 181.935 463.515 181.348 462.928L179.227 465.049Z" fill="black"/>
</svg>
