<?xml version="1.0" encoding="UTF-8"?><svg xmlns="http://www.w3.org/2000/svg" viewBox="0 0 17.46 17.46"><defs><style>.d{fill:#fff;}</style></defs><g id="a"/><g id="b"><g id="c"><g><path class="d" d="M0,8.61V0H17.46V17.46H0V8.88c.03,.08,.05,.16,.09,.24,.19,.38,.5,.52,.92,.52,4.38,0,8.76,0,13.14,0h.2l.03,.07c-.06,.04-.12,.07-.17,.12-1.17,1.17-2.35,2.34-3.52,3.51-.06,.06-.13,.13-.18,.2-.21,.29-.25,.6-.09,.93,.26,.53,.98,.7,1.5,.18,1.71-1.73,3.44-3.44,5.16-5.16,.47-.47,.47-.99,0-1.46-1.71-1.71-3.43-3.42-5.14-5.14-.06-.06-.12-.12-.19-.17-.52-.38-1.27-.09-1.4,.54-.07,.36,.07,.64,.32,.88,1.19,1.19,2.37,2.37,3.56,3.56,.05,.05,.09,.09,.16,.17h-.24c-4.36,0-8.71,0-13.07,0-.09,0-.17,0-.26,0-.37,.04-.62,.23-.75,.57-.02,.06-.04,.12-.06,.17Z"/><path d="M0,8.61c.02-.06,.04-.12,.06-.17,.13-.34,.39-.53,.75-.57,.08,0,.17,0,.26,0,4.36,0,8.71,0,13.07,0h.24c-.07-.08-.11-.12-.16-.17-1.19-1.19-2.37-2.38-3.56-3.56-.25-.25-.39-.52-.32-.88,.13-.63,.88-.92,1.4-.54,.07,.05,.13,.11,.19,.17,1.71,1.71,3.43,3.42,5.14,5.14,.47,.47,.47,.99,0,1.46-1.72,1.72-3.45,3.44-5.16,5.16-.52,.52-1.24,.35-1.5-.18-.16-.33-.12-.64,.09-.93,.05-.07,.12-.14,.18-.2,1.17-1.17,2.35-2.34,3.52-3.51,.05-.05,.11-.08,.17-.12l-.03-.07h-.2c-4.38,0-8.76,0-13.14,0-.41,0-.73-.14-.92-.52C.05,9.04,.03,8.96,0,8.88v-.27Z"/></g></g></g></svg>