<svg width="140" height="19" viewBox="0 0 140 19" fill="none" xmlns="http://www.w3.org/2000/svg">
<path d="M6.36 15.32C5.18667 15.32 4.05333 15.1867 2.96 14.92C1.86667 14.6533 0.966667 14.3067 0.26 13.88L1.78 10.44C2.44667 10.8267 3.18667 11.14 4 11.38C4.82667 11.6067 5.62667 11.72 6.4 11.72C6.85333 11.72 7.20667 11.6933 7.46 11.64C7.72667 11.5733 7.92 11.4867 8.04 11.38C8.16 11.26 8.22 11.12 8.22 10.96C8.22 10.7067 8.08 10.5067 7.8 10.36C7.52 10.2133 7.14667 10.0933 6.68 10C6.22667 9.89333 5.72667 9.78667 5.18 9.68C4.63333 9.56 4.08 9.40667 3.52 9.22C2.97333 9.03333 2.46667 8.78667 2 8.48C1.54667 8.17333 1.18 7.77333 0.9 7.28C0.62 6.77333 0.48 6.14667 0.48 5.4C0.48 4.53333 0.72 3.74667 1.2 3.04C1.69333 2.32 2.42 1.74667 3.38 1.32C4.35333 0.893333 5.56 0.68 7 0.68C7.94667 0.68 8.88 0.779999 9.8 0.979999C10.72 1.18 11.5467 1.48667 12.28 1.9L10.86 5.32C10.1667 4.97333 9.49333 4.71333 8.84 4.54C8.2 4.36667 7.57333 4.28 6.96 4.28C6.50667 4.28 6.14667 4.32 5.88 4.4C5.61333 4.48 5.42 4.58667 5.3 4.72C5.19333 4.85333 5.14 5 5.14 5.16C5.14 5.4 5.28 5.59333 5.56 5.74C5.84 5.87333 6.20667 5.98667 6.66 6.08C7.12667 6.17333 7.63333 6.27333 8.18 6.38C8.74 6.48667 9.29333 6.63333 9.84 6.82C10.3867 7.00667 10.8867 7.25333 11.34 7.56C11.8067 7.86667 12.18 8.26667 12.46 8.76C12.74 9.25333 12.88 9.86667 12.88 10.6C12.88 11.4533 12.6333 12.24 12.14 12.96C11.66 13.6667 10.94 14.24 9.98 14.68C9.02 15.1067 7.81333 15.32 6.36 15.32ZM22.0245 15.2C20.5179 15.2 19.3445 14.84 18.5045 14.12C17.6645 13.3867 17.2445 12.2667 17.2445 10.76V1.6H21.7645V10.72C21.7645 11.0533 21.8512 11.3133 22.0245 11.5C22.2112 11.6867 22.4379 11.78 22.7045 11.78C23.0912 11.78 23.4312 11.68 23.7245 11.48L24.8045 14.62C24.4579 14.82 24.0379 14.9667 23.5445 15.06C23.0645 15.1533 22.5579 15.2 22.0245 15.2ZM15.7445 7.96V4.66H24.0045V7.96H15.7445ZM28.5438 15V4.06H32.8438V7.36L32.1438 6.42C32.4771 5.56667 33.0104 4.92667 33.7438 4.5C34.4771 4.07333 35.3571 3.86 36.3838 3.86V7.86C36.1838 7.83333 36.0038 7.81333 35.8438 7.8C35.6971 7.78667 35.5438 7.78 35.3838 7.78C34.7038 7.78 34.1438 7.96 33.7038 8.32C33.2771 8.66667 33.0638 9.27333 33.0638 10.14V15H28.5438ZM46.2072 15.2C44.8739 15.2 43.7072 14.9533 42.7072 14.46C41.7205 13.9667 40.9539 13.2933 40.4072 12.44C39.8605 11.5733 39.5872 10.6 39.5872 9.52C39.5872 8.41333 39.8539 7.43333 40.3872 6.58C40.9339 5.72667 41.6739 5.06 42.6072 4.58C43.5539 4.1 44.6139 3.86 45.7872 3.86C46.8672 3.86 47.8605 4.07333 48.7672 4.5C49.6872 4.92667 50.4205 5.56 50.9672 6.4C51.5272 7.24 51.8072 8.28 51.8072 9.52C51.8072 9.68 51.8005 9.86 51.7872 10.06C51.7739 10.2467 51.7605 10.42 51.7472 10.58H43.3272V8.4H49.3472L47.6472 8.98C47.6472 8.55333 47.5672 8.19333 47.4072 7.9C47.2605 7.59333 47.0539 7.36 46.7872 7.2C46.5205 7.02667 46.2005 6.94 45.8272 6.94C45.4539 6.94 45.1272 7.02667 44.8472 7.2C44.5805 7.36 44.3739 7.59333 44.2272 7.9C44.0805 8.19333 44.0072 8.55333 44.0072 8.98V9.66C44.0072 10.1267 44.1005 10.5267 44.2872 10.86C44.4739 11.1933 44.7405 11.4467 45.0872 11.62C45.4339 11.78 45.8539 11.86 46.3472 11.86C46.8539 11.86 47.2672 11.7933 47.5872 11.66C47.9205 11.5267 48.2672 11.3267 48.6272 11.06L50.9872 13.44C50.4539 14.0133 49.7939 14.4533 49.0072 14.76C48.2339 15.0533 47.3005 15.2 46.2072 15.2ZM61.8736 15.2C60.5403 15.2 59.3736 14.9533 58.3736 14.46C57.3869 13.9667 56.6203 13.2933 56.0736 12.44C55.5269 11.5733 55.2536 10.6 55.2536 9.52C55.2536 8.41333 55.5203 7.43333 56.0536 6.58C56.6003 5.72667 57.3403 5.06 58.2736 4.58C59.2203 4.1 60.2803 3.86 61.4536 3.86C62.5336 3.86 63.5269 4.07333 64.4336 4.5C65.3536 4.92667 66.0869 5.56 66.6336 6.4C67.1936 7.24 67.4736 8.28 67.4736 9.52C67.4736 9.68 67.4669 9.86 67.4536 10.06C67.4403 10.2467 67.4269 10.42 67.4136 10.58H58.9936V8.4H65.0136L63.3136 8.98C63.3136 8.55333 63.2336 8.19333 63.0736 7.9C62.9269 7.59333 62.7203 7.36 62.4536 7.2C62.1869 7.02667 61.8669 6.94 61.4936 6.94C61.1203 6.94 60.7936 7.02667 60.5136 7.2C60.2469 7.36 60.0403 7.59333 59.8936 7.9C59.7469 8.19333 59.6736 8.55333 59.6736 8.98V9.66C59.6736 10.1267 59.7669 10.5267 59.9536 10.86C60.1403 11.1933 60.4069 11.4467 60.7536 11.62C61.1003 11.78 61.5203 11.86 62.0136 11.86C62.5203 11.86 62.9336 11.7933 63.2536 11.66C63.5869 11.5267 63.9336 11.3267 64.2936 11.06L66.6536 13.44C66.1203 14.0133 65.4603 14.4533 64.6736 14.76C63.9003 15.0533 62.9669 15.2 61.8736 15.2ZM76.78 15.2C75.2733 15.2 74.1 14.84 73.26 14.12C72.42 13.3867 72 12.2667 72 10.76V1.6H76.52V10.72C76.52 11.0533 76.6067 11.3133 76.78 11.5C76.9667 11.6867 77.1933 11.78 77.46 11.78C77.8467 11.78 78.1867 11.68 78.48 11.48L79.56 14.62C79.2133 14.82 78.7933 14.9667 78.3 15.06C77.82 15.1533 77.3133 15.2 76.78 15.2ZM70.5 7.96V4.66H78.76V7.96H70.5Z" fill="white"/>
<path d="M90.5153 15L96.6353 0.999999H101.275L107.395 15H102.515L97.9953 3.24H99.8353L95.3153 15H90.5153ZM94.1553 12.56L95.3553 9.16H101.795L102.995 12.56H94.1553ZM117.909 15.2C116.962 15.2 116.175 15 115.549 14.6C114.935 14.1867 114.482 13.5667 114.189 12.74C113.895 11.9 113.749 10.8333 113.749 9.54C113.749 8.22 113.882 7.14667 114.149 6.32C114.429 5.48 114.875 4.86 115.489 4.46C116.102 4.06 116.909 3.86 117.909 3.86C118.869 3.86 119.749 4.09333 120.549 4.56C121.349 5.01333 121.989 5.66667 122.469 6.52C122.949 7.36 123.189 8.36667 123.189 9.54C123.189 10.7133 122.949 11.7267 122.469 12.58C121.989 13.42 121.349 14.0667 120.549 14.52C119.749 14.9733 118.869 15.2 117.909 15.2ZM110.609 18.88V4.06H114.909V5.54L114.929 9.54L115.129 13.54V18.88H110.609ZM116.829 11.68C117.162 11.68 117.462 11.6 117.729 11.44C117.995 11.28 118.209 11.04 118.369 10.72C118.529 10.4 118.609 10.0067 118.609 9.54C118.609 9.06 118.529 8.66 118.369 8.34C118.209 8.02 117.995 7.78 117.729 7.62C117.462 7.46 117.162 7.38 116.829 7.38C116.495 7.38 116.195 7.46 115.929 7.62C115.662 7.78 115.449 8.02 115.289 8.34C115.129 8.66 115.049 9.06 115.049 9.54C115.049 10.0067 115.129 10.4 115.289 10.72C115.449 11.04 115.662 11.28 115.929 11.44C116.195 11.6 116.495 11.68 116.829 11.68ZM134.513 15.2C133.566 15.2 132.779 15 132.153 14.6C131.539 14.1867 131.086 13.5667 130.793 12.74C130.499 11.9 130.353 10.8333 130.353 9.54C130.353 8.22 130.486 7.14667 130.753 6.32C131.033 5.48 131.479 4.86 132.093 4.46C132.706 4.06 133.513 3.86 134.513 3.86C135.473 3.86 136.353 4.09333 137.153 4.56C137.953 5.01333 138.593 5.66667 139.073 6.52C139.553 7.36 139.793 8.36667 139.793 9.54C139.793 10.7133 139.553 11.7267 139.073 12.58C138.593 13.42 137.953 14.0667 137.153 14.52C136.353 14.9733 135.473 15.2 134.513 15.2ZM127.213 18.88V4.06H131.513V5.54L131.533 9.54L131.733 13.54V18.88H127.213ZM133.433 11.68C133.766 11.68 134.066 11.6 134.333 11.44C134.599 11.28 134.813 11.04 134.973 10.72C135.133 10.4 135.213 10.0067 135.213 9.54C135.213 9.06 135.133 8.66 134.973 8.34C134.813 8.02 134.599 7.78 134.333 7.62C134.066 7.46 133.766 7.38 133.433 7.38C133.099 7.38 132.799 7.46 132.533 7.62C132.266 7.78 132.053 8.02 131.893 8.34C131.733 8.66 131.653 9.06 131.653 9.54C131.653 10.0067 131.733 10.4 131.893 10.72C132.053 11.04 132.266 11.28 132.533 11.44C132.799 11.6 133.099 11.68 133.433 11.68Z" fill="#0095A9"/>
</svg>
